Coordinates
version=1
nRows=10
nColumns=40
inDegrees=yes

Units are S.I. units (second, meters, Newtons, ...)
Angles are in degrees.

endheader
time	pelvis_tilt	pelvis_list	pelvis_rotation	pelvis_tx	pelvis_ty	pelvis_tz	hip_flexion_r	hip_adduction_r	hip_rotation_r	knee_angle_r	knee_angle_r_beta	ankle_angle_r	subtalar_angle_r	mtp_angle_r	hip_flexion_l	hip_adduction_l	hip_rotation_l	knee_angle_l	knee_angle_l_beta	ankle_angle_l	subtalar_angle_l	mtp_angle_l	lumbar_extension	lumbar_bending	lumbar_rotation	arm_flex_r	arm_add_r	arm_rot_r	elbow_flex_r	pro_sup_r	wrist_flex_r	wrist_dev_r	arm_flex_l	arm_add_l	arm_rot_l	elbow_flex_l	pro_sup_l	wrist_flex_l	wrist_dev_l
     48.95000000	      0.23471182	     -5.27302218	      1.24547050	      0.91539159	      0.91212752	      0.56684611	     12.71861700	      6.61351509	    -10.45837886	     30.88505204	     30.88505204	     19.95228253	     -8.12647262	     -1.33422566	     31.03211105	    -15.62556594	      0.61459026	     67.47639946	     67.47639946	     17.28994676	    -19.61432829	     23.45333695	    -12.78096553	      6.73096276	      1.65218158	     24.85065123	    -16.37752309	    -22.68347945	     30.65146857	     46.87647504	      0.00000000	      0.00000000	      3.65390320	     -7.67022032	      1.46032315	     26.06203573	     46.12193191	      0.00000000	      0.00000000
     48.96971429	      0.38464921	     -5.30998947	      1.89412385	      0.91436399	      0.91081444	      0.56728639	     12.47285691	      6.77213054	    -10.52724065	     31.30661255	     31.30661255	     20.36224391	     -9.03424425	     -1.16573208	     31.72749893	    -15.56920838	      0.80787260	     65.57499017	     65.57499017	     17.23801858	    -19.61664229	     23.49666372	    -12.84573464	      6.56234232	      1.66000998	     26.88025812	    -16.09499927	    -22.41493518	     32.08692452	     46.80574299	      0.00000000	      0.00000000	      1.43963419	     -7.39584147	      1.87599367	     24.52365847	     46.01193346	      0.00000000	      0.00000000
     48.98942857	      0.44723131	     -5.29015327	      2.55273922	      0.91327247	      0.91011466	      0.56734892	     12.16404159	      6.84443614	    -10.66396620	     31.42982018	     31.42982018	     20.64343942	     -9.74368340	     -0.97015646	     32.30355394	    -15.31771244	      1.01835934	     63.23214867	     63.23214867	     17.05580320	    -19.60316766	     23.44641215	    -12.86637691	      6.34788909	      1.77691442	     28.80748386	    -15.95008979	    -22.08333152	     33.56279065	     46.73023027	      0.00000000	      0.00000000	     -0.69005127	     -7.16602700	      2.26020977	     23.28553605	     45.90210144	      0.00000000	      0.00000000
     49.00914286	      0.41177595	     -5.24222695	      3.25162047	      0.91217961	      0.91001954	      0.56700093	     11.77547173	      6.85704906	    -10.92286043	     31.20903235	     31.20903235	     20.80891455	    -10.25035369	     -0.72442691	     32.78524719	    -14.88513187	      1.30101255	     60.52407630	     60.52407630	     16.69219844	    -19.57652812	     23.14870942	    -12.77680181	      6.12519535	      1.87176216	     30.63607371	    -15.89281594	    -21.59934901	     35.25922886	     46.63559188	      0.00000000	      0.00000000	     -2.81302227	     -7.00857063	      2.68054745	     22.37832002	     45.77619863	      0.00000000	      0.00000000
     49.02885714	      0.30461427	     -5.12588428	      3.95169313	      0.91106458	      0.91058663	      0.56619606	     11.28395988	      6.75546683	    -11.26965750	     30.67241464	     30.67241464	     20.86195276	    -10.46948870	     -0.50429413	     33.09553639	    -14.23479619	      1.65014410	     57.46197012	     57.46197012	     16.12585505	    -19.53534986	     22.63232257	    -12.66612633	      5.87378566	      2.03289126	     32.33547924	    -15.97557786	    -20.98121435	     37.13516563	     46.52653888	      0.00000000	      0.00000000	     -4.92149400	     -6.93137157	      3.09808011	     21.93357768	     45.64126800	      0.00000000	      0.00000000
     49.04857143	     -0.03317882	     -4.94123460	      4.64333342	      0.90982579	      0.91147858	      0.56505489	     10.91877361	      6.53860694	    -11.67552125	     29.90050514	     29.90050514	     20.77941158	    -10.54697804	     -0.30217345	     33.44254536	    -13.35455329	      2.13409287	     54.16558379	     54.16558379	     15.61924864	    -19.46128611	     22.59437976	    -12.28952740	      5.47680522	      2.59452783	     33.89378536	    -16.50707569	    -20.75370006	     38.29712092	     46.47648883	      0.00000000	      0.00000000	     -6.64940943	     -6.85660253	      3.22632044	     21.59356529	     45.57548083	      0.00000000	      0.00000000
     49.06828571	     -0.25205075	     -4.79096953	      5.35210834	      0.90879695	      0.91291953	      0.56347851	     10.22039514	      6.29482662	    -12.36760356	     28.81963735	     28.81963735	     20.66306300	    -10.04713898	     -0.37993110	     33.37731182	    -12.50407160	      2.63825932	     50.55386829	     50.55386829	     14.03661364	    -19.35177475	     19.76037588	    -12.12687228	      5.27606203	      2.34599004	     35.19059175	    -16.51147586	    -19.08170988	     41.87099625	     46.23673765	      0.00000000	      0.00000000	     -9.31393589	     -7.04659760	      3.99631973	     22.94314832	     45.32297264	      0.00000000	      0.00000000
     49.08800000	     -0.54150246	     -4.59891588	      5.97953585	      0.90770742	      0.91464760	      0.56172433	      9.51386994	      6.03270669	    -12.96085373	     27.56645761	     27.56645761	     20.37411595	     -9.61365521	     -0.54591506	     33.16061476	    -11.59529737	      3.17511896	     46.81415084	     46.81415084	     12.61256855	    -19.16463558	     17.59236316	    -11.93882499	      4.96010501	      2.82791306	     36.31174009	    -17.36083257	    -17.45366964	     44.47590484	     46.04759804	      0.00000000	      0.00000000	    -11.36502681	     -7.33079739	      5.21776617	     24.33229881	     45.02915569	      0.00000000	      0.00000000
     49.10771429	     -0.90524847	     -4.37730938	      6.60582465	      0.90664119	      0.91644299	      0.55970282	      8.80260621	      5.76538450	    -13.46308797	     26.17211474	     26.17211474	     20.13517485	     -9.25963371	     -0.31471844	     32.92095964	    -10.56934107	      3.94936279	     43.20344962	     43.20344962	     11.92429759	    -18.84462858	     17.59744048	    -11.57919061	      4.61436083	      3.23547139	     37.90387238	    -17.84435303	    -17.28592788	     45.54774737	     46.00760335	      0.00000000	      0.00000000	    -12.73048723	     -7.37818701	      5.44375573	     24.24336619	     44.96289060	      0.00000000	      0.00000000
     49.12742857	     -1.22978914	     -4.23781732	      7.17830347	      0.90569090	      0.91815161	      0.55757625	      7.97111541	      5.56023733	    -14.16627849	     24.65738754	     24.65738754	     19.90571120	     -8.44787288	     -0.23369089	     32.51461248	     -9.76580353	      4.63778821	     39.66506961	     39.66506961	     11.08175521	    -18.21395506	     16.87343907	    -11.35592289	      4.33133105	      3.40583061	     39.55865801	    -18.14850762	    -16.97521671	     47.05871774	     45.94442357	      0.00000000	      0.00000000	    -14.18678736	     -7.40348707	      5.68482405	     24.60605521	     44.88861835	      0.00000000	      0.00000000
